<?xml version="1.0" encoding="UTF-8"?>
<svg width="41px" height="33px" viewBox="0 0 41 33" version="1.1" xmlns="http://www.w3.org/2000/svg" xmlns:xlink="http://www.w3.org/1999/xlink">
    <!-- Generator: Sketch 54.1 (76490) - https://sketchapp.com -->
    <title>Icon / Mobile / HIW / Calendar</title>
    <desc>Created with Sketch.</desc>
    <defs>
        <polygon id="path-1" points="0 32.8224333 40.8776721 32.8224333 40.8776721 0.0001 0 0.0001"></polygon>
    </defs>
    <g id="Desktop" stroke="none" stroke-width="1" fill="none" fill-rule="evenodd">
        <g id="A.1_HOME_R3.3" transform="translate(-949.000000, -4724.000000)">
            <g id="DIV-03" transform="translate(0.000000, 4093.000000)">
                <g id="Group-3" transform="translate(949.000000, 155.000000)">
                    <g id="stat---3" transform="translate(0.000000, 448.000000)">
                        <g id="Icon-/-Mobile-/-HIW-/-Calendar" transform="translate(0.000000, 24.000000)">
                            <g id="Group-21" transform="translate(0.000000, 4.000000)">
                                <path d="M38.5736066,32.8223 L2.30406557,32.8223 C1.0337377,32.8223 0,31.7973 0,30.5373 L0,9.88863333 L0.672131148,9.88863333 L0.672131148,30.5373 C0.672131148,31.4296333 1.40408197,32.1556333 2.30406557,32.1556333 L38.5736066,32.1556333 C39.4735902,32.1556333 40.205541,31.4296333 40.205541,30.5373 L40.205541,9.88863333 L40.8776721,9.88863333 L40.8776721,30.5373 C40.8776721,31.7973 39.8439344,32.8223 38.5736066,32.8223" id="Fill-1" fill="#004A87"></path>
                                <path d="M8.93813443,6.54203333 C7.72560984,6.54203333 6.73892131,5.56336667 6.73892131,4.3607 C6.73892131,4.07436667 6.79739672,3.79236667 6.91333934,3.52236667 L7.53136393,3.7837 C7.45138033,3.97036667 7.41105246,4.16436667 7.41105246,4.3607 C7.41105246,5.19603333 8.0959541,5.87536667 8.93813443,5.87536667 C9.78031475,5.87536667 10.4652164,5.19603333 10.4652164,4.3607 C10.4652164,4.1647 10.4245525,3.97036667 10.3445689,3.7837 L10.9629295,3.5227 C11.0788721,3.7927 11.1373475,4.0747 11.1373475,4.3607 C11.1373475,5.56336667 10.150659,6.54203333 8.93813443,6.54203333" id="Fill-3" fill="#004A87"></path>
                                <mask id="mask-2" fill="white">
                                    <use xlink:href="#path-1"></use>
                                </mask>
                                <g id="Clip-6"></g>
                                <polygon id="Fill-5" fill="#004A87" mask="url(#mask-2)" points="8.60193443 4.3281 9.27406557 4.3281 9.27406557 0.0001 8.60193443 0.0001"></polygon>
                                <path d="M31.9396049,6.54203333 C30.7270803,6.54203333 29.7403918,5.56336667 29.7403918,4.3607 C29.7403918,4.07436667 29.7988672,3.79236667 29.9148098,3.5227 L30.5328344,3.7837 C30.4531869,3.97036667 30.412523,4.16436667 30.412523,4.3607 C30.412523,5.19603333 31.0974246,5.87536667 31.9396049,5.87536667 C32.7817852,5.87536667 33.4666869,5.19603333 33.4666869,4.3607 C33.4666869,4.16436667 33.426023,3.97036667 33.3463754,3.7837 L33.9644,3.5227 C34.0803426,3.79236667 34.138818,4.07436667 34.138818,4.3607 C34.138818,5.56336667 33.1521295,6.54203333 31.9396049,6.54203333" id="Fill-7" fill="#004A87" mask="url(#mask-2)"></path>
                                <polygon id="Fill-8" fill="#004A87" mask="url(#mask-2)" points="31.6036066 4.3281 32.2757377 4.3281 32.2757377 0.0001 31.6036066 0.0001"></polygon>
                                <polygon id="Fill-9" fill="#004A87" mask="url(#mask-2)" points="10.9974098 1.53276667 29.8802623 1.53276667 29.8802623 0.8661 10.9974098 0.8661"></polygon>
                                <path d="M40.8778402,10.2220333 L-0.000168032787,10.2220333 L-0.000168032787,3.15136667 C-0.000168032787,1.89136667 1.03356967,0.866366667 2.30423361,0.866366667 L6.8787582,0.866366667 L6.8787582,1.53303333 L2.30423361,1.53303333 C1.40425,1.53303333 0.671963115,2.2587 0.671963115,3.15136667 L0.671963115,9.55536667 L40.205709,9.55536667 L40.205709,3.15136667 C40.205709,2.2587 39.4734221,1.53303333 38.5737746,1.53303333 L33.9989139,1.53303333 L33.9989139,0.866366667 L38.5737746,0.866366667 C39.8441025,0.866366667 40.8778402,1.89136667 40.8778402,3.15136667 L40.8778402,10.2220333 Z" id="Fill-10" fill="#004A87" mask="url(#mask-2)"></path>
                                <polygon id="Fill-11" fill="#004A87" mask="url(#mask-2)" points="11.3916148 18.2211 12.0637459 18.2211 12.0637459 14.1684333 11.3916148 14.1684333"></polygon>
                                <polygon id="Fill-12" fill="#004A87" mask="url(#mask-2)" points="17.1988279 18.2211 17.870959 18.2211 17.870959 14.1684333 17.1988279 14.1684333"></polygon>
                                <polygon id="Fill-13" fill="#004A87" mask="url(#mask-2)" points="23.0067131 18.2211 23.6788443 18.2211 23.6788443 14.1684333 23.0067131 14.1684333"></polygon>
                                <polygon id="Fill-14" fill="#004A87" mask="url(#mask-2)" points="28.8139262 18.2211 29.4860574 18.2211 29.4860574 14.1684333 28.8139262 14.1684333"></polygon>
                                <polygon id="Fill-15" fill="#004A87" mask="url(#mask-2)" points="11.3916148 28.1421 12.0637459 28.1421 12.0637459 24.0897667 11.3916148 24.0897667"></polygon>
                                <polygon id="Fill-16" fill="#004A87" mask="url(#mask-2)" points="17.1988279 28.1421 17.870959 28.1421 17.870959 24.0897667 17.1988279 24.0897667"></polygon>
                                <polygon id="Fill-17" fill="#004A87" mask="url(#mask-2)" points="23.0067131 28.1421 23.6788443 28.1421 23.6788443 24.0897667 23.0067131 24.0897667"></polygon>
                                <polygon id="Fill-18" fill="#004A87" mask="url(#mask-2)" points="28.8139262 28.1421 29.4860574 28.1421 29.4860574 24.0897667 28.8139262 24.0897667"></polygon>
                                <polygon id="Fill-19" fill="#009EE3" mask="url(#mask-2)" points="8.45339344 21.5221 32.4242787 21.5221 32.4242787 20.8554333 8.45339344 20.8554333"></polygon>
                                <polygon id="Fill-20" fill="#004A87" mask="url(#mask-2)" points="13.5047951 4.84243333 27.372877 4.84243333 27.372877 4.17576667 13.5047951 4.17576667"></polygon>
                            </g>
                        </g>
                    </g>
                </g>
            </g>
        </g>
    </g>
</svg>