<?xml version="1.0" encoding="UTF-8"?>
<svg width="41px" height="35px" viewBox="0 0 41 35" version="1.1" xmlns="http://www.w3.org/2000/svg" xmlns:xlink="http://www.w3.org/1999/xlink">
    <!-- Generator: Sketch 54.1 (76490) - https://sketchapp.com -->
    <title>Icon / Mobile / HIW / Magnifier</title>
    <desc>Created with Sketch.</desc>
    <defs>
        <polygon id="path-1" points="0 0.0912522523 40.7493053 0.0912522523 40.7493053 34.6844955 0 34.6844955"></polygon>
    </defs>
    <g id="Desktop" stroke="none" stroke-width="1" fill="none" fill-rule="evenodd">
        <g id="A.1_HOME_R3.3" transform="translate(-950.000000, -4531.000000)">
            <g id="DIV-03" transform="translate(0.000000, 4093.000000)">
                <g id="Group-3" transform="translate(949.000000, 155.000000)">
                    <g id="stat--1" transform="translate(1.000000, 280.000000)">
                        <g id="Icon-/-Mobile-/-HIW-/-Magnifier">
                            <g id="Group-22" transform="translate(0.000000, 3.000000)">
                                <path d="M27.7974992,3.85457207 C27.7974992,4.25155405 27.4779496,4.57349099 27.0835985,4.57349099 C26.6895603,4.57349099 26.3696977,4.25155405 26.3696977,3.85457207 C26.3696977,3.45727477 26.6895603,3.13533784 27.0835985,3.13533784 C27.4779496,3.13533784 27.7974992,3.45727477 27.7974992,3.85457207" id="Fill-1" fill="#009EE3"></path>
                                <path d="M32.3264969,3.85457207 C32.3264969,4.25155405 32.0069473,4.57349099 31.6129092,4.57349099 C31.218558,4.57349099 30.8990084,4.25155405 30.8990084,3.85457207 C30.8990084,3.45727477 31.218558,3.13533784 31.6129092,3.13533784 C32.0069473,3.13533784 32.3264969,3.45727477 32.3264969,3.85457207" id="Fill-3" fill="#009EE3"></path>
                                <path d="M36.7301786,3.85457207 C36.7301786,4.25155405 36.410629,4.57349099 36.0165908,4.57349099 C35.6222397,4.57349099 35.3026901,4.25155405 35.3026901,3.85457207 C35.3026901,3.45727477 35.6222397,3.13533784 36.0165908,3.13533784 C36.410629,3.13533784 36.7301786,3.45727477 36.7301786,3.85457207" id="Fill-5" fill="#009EE3"></path>
                                <path d="M23.2428374,19.0167928 C23.2428374,21.3996306 21.3255397,23.3312523 18.9603718,23.3312523 C16.5952038,23.3312523 14.6779061,21.3996306 14.6779061,19.0167928 C14.6779061,16.6336396 16.5952038,14.702018 18.9603718,14.702018 C21.3255397,14.702018 23.2428374,16.6336396 23.2428374,19.0167928" id="Fill-7" fill="#009EE3"></path>
                                <g id="Group-11" transform="translate(0.000000, 0.224189)">
                                    <mask id="mask-2" fill="white">
                                        <use xlink:href="#path-1"></use>
                                    </mask>
                                    <g id="Clip-10"></g>
                                    <path d="M2.33937863,0.767918919 C1.41985191,0.767918919 0.671523664,1.52183784 0.671523664,2.44823423 L0.671523664,6.55143243 L40.0778443,6.55143243 L40.0778443,2.44823423 C40.0778443,1.52183784 39.329516,0.767918919 38.4096763,0.767918919 L2.33937863,0.767918919 Z M0.671523664,32.3275135 C0.671523664,33.2542252 1.41985191,34.0081441 2.33937863,34.0081441 L38.4096763,34.0081441 C39.329516,34.0081441 40.0778443,33.2542252 40.0778443,32.3275135 L40.0778443,7.2280991 L0.671523664,7.2280991 L0.671523664,32.3275135 Z M2.33937863,34.6844955 C1.0496,34.6844955 -0.00012519084,33.6272432 -0.00012519084,32.3275135 L-0.00012519084,2.44823423 C-0.00012519084,1.1485045 1.0496,0.0912522523 2.33937863,0.0912522523 L38.4096763,0.0912522523 C39.6997679,0.0912522523 40.7494931,1.1485045 40.7494931,2.44823423 L40.7494931,32.3275135 C40.7494931,33.6272432 39.6997679,34.6844955 38.4096763,34.6844955 L2.33937863,34.6844955 Z" id="Fill-9" fill="#004A87" mask="url(#mask-2)"></path>
                                </g>
                                <path d="M31.5963214,3.34218468 C31.2999321,3.34218468 31.0586267,3.58529279 31.0586267,3.8838964 C31.0586267,4.1825 31.2999321,4.42560811 31.5963214,4.42560811 C31.8927107,4.42560811 32.134329,4.1825 32.134329,3.8838964 C32.134329,3.58529279 31.8927107,3.34218468 31.5963214,3.34218468 M31.5963214,4.81565315 C31.0861687,4.81565315 30.671474,4.39786036 30.671474,3.8838964 C30.671474,3.36993243 31.0861687,2.95213964 31.5963214,2.95213964 C32.106474,2.95213964 32.5211687,3.36993243 32.5211687,3.8838964 C32.5211687,4.39786036 32.106474,4.81565315 31.5963214,4.81565315" id="Fill-12" fill="#004A87"></path>
                                <path d="M36.0051985,3.34218468 C35.7088092,3.34218468 35.4671908,3.58529279 35.4671908,3.8838964 C35.4671908,4.1825 35.7088092,4.42560811 36.0051985,4.42560811 C36.3015878,4.42560811 36.5428931,4.1825 36.5428931,3.8838964 C36.5428931,3.58529279 36.3015878,3.34218468 36.0051985,3.34218468 M36.0051985,4.81565315 C35.4950458,4.81565315 35.0800382,4.39786036 35.0800382,3.8838964 C35.0800382,3.36993243 35.4950458,2.95213964 36.0051985,2.95213964 C36.5150382,2.95213964 36.9297328,3.36993243 36.9297328,3.8838964 C36.9297328,4.39786036 36.5150382,4.81565315 36.0051985,4.81565315" id="Fill-14" fill="#004A87"></path>
                                <path d="M27.1880389,3.34218468 C26.8916496,3.34218468 26.6500313,3.58529279 26.6500313,3.8838964 C26.6500313,4.1825 26.8916496,4.42560811 27.1880389,4.42560811 C27.4844282,4.42560811 27.7257336,4.1825 27.7257336,3.8838964 C27.7257336,3.58529279 27.4844282,3.34218468 27.1880389,3.34218468 M27.1880389,4.81565315 C26.6778863,4.81565315 26.2628786,4.39786036 26.2628786,3.8838964 C26.2628786,3.36993243 26.6778863,2.95213964 27.1880389,2.95213964 C27.6978786,2.95213964 28.1125733,3.36993243 28.1125733,3.8838964 C28.1125733,4.39786036 27.6978786,4.81565315 27.1880389,4.81565315" id="Fill-16" fill="#004A87"></path>
                                <path d="M18.7654809,14.706464 C17.7004198,14.706464 16.6985802,15.1245721 15.9439924,15.8838514 C15.1903435,16.6437613 14.7753359,17.6530856 14.7753359,18.7261036 C14.7753359,19.7997523 15.1903435,20.8093919 15.9443053,21.5689865 C16.6979542,22.3279505 17.6997939,22.7457432 18.7654809,22.7457432 C19.830855,22.7457432 20.8326947,22.3279505 21.5866565,21.5689865 C22.3406183,20.8090766 22.755626,19.7994369 22.755626,18.7261036 C22.755626,17.6530856 22.3406183,16.6437613 21.5869695,15.8838514 C20.8326947,15.1245721 19.830855,14.706464 18.7654809,14.706464 M18.7654809,23.4227252 C17.520145,23.4227252 16.3492977,22.9343018 15.4692061,22.0470045 C14.5888015,21.1597072 14.103687,19.9801126 14.103687,18.7261036 C14.103687,17.4720946 14.5888015,16.2925 15.4695191,15.405518 C16.3499237,14.5182207 17.520458,14.0297973 18.7654809,14.0297973 C20.0105038,14.0297973 21.1807252,14.5182207 22.0614427,15.405518 C22.9421603,16.2925 23.4272748,17.4720946 23.4272748,18.7261036 C23.4272748,19.9804279 22.9421603,21.1600225 22.0614427,22.0470045 C21.1813511,22.9343018 20.0108168,23.4227252 18.7654809,23.4227252" id="Fill-18" fill="#004A87"></path>
                                <path d="M28.0542344,30.1221351 C28.3146313,30.3841622 28.6830053,30.5342523 29.0651504,30.5342523 C29.4485473,30.5339369 29.8172344,30.3832162 30.0770053,30.1215045 C30.6337916,29.5602432 30.6334786,28.6461441 30.0760664,28.0845676 L24.997387,22.9673153 L25.1394786,22.7387117 C25.8899977,21.5338919 26.2868527,20.1461892 26.2868527,18.726009 C26.2868527,16.7026306 25.5044099,14.7997027 24.0834939,13.3681712 C22.6632038,11.936955 20.774387,11.148982 18.765387,11.148982 C16.756387,11.148982 14.8675702,11.936955 13.4469672,13.3681712 C12.0263641,14.7990721 11.2442344,16.702 11.2442344,18.726009 C11.2442344,20.7503333 12.0263641,22.6532613 13.4469672,24.0844775 C14.8675702,25.5156937 16.756387,26.3036667 18.765387,26.3036667 C20.1750359,26.3036667 21.5524481,25.9038468 22.7483336,25.148036 L22.974929,25.0045676 L28.0542344,30.1221351 Z M29.0651504,31.2203784 C28.5039824,31.2203784 27.976616,31.0002883 27.5794481,30.6007838 L22.879471,25.8647477 L22.6206389,26.0047477 C21.4394634,26.6429459 20.1061809,26.980018 18.765387,26.980018 C16.5767382,26.980018 14.5195397,26.1214144 12.9724939,24.5624955 C11.4248221,23.0038919 10.5728985,20.9313243 10.5728985,18.726009 C10.5728985,16.5213243 11.4248221,14.4487568 12.9724939,12.8901532 C14.5198527,11.3309189 16.5770511,10.4726306 18.765387,10.4726306 C20.9537229,10.4726306 23.0112344,11.3309189 24.5585931,12.8901532 C26.1059519,14.4490721 26.9581885,16.5216396 26.9581885,18.726009 C26.9581885,20.0768198 26.623616,21.4194324 25.9898374,22.6100631 L25.8511885,22.8708288 L30.5514786,27.6062342 C31.3705397,28.4317297 31.3705397,29.7746577 30.5514786,30.6004685 C30.1539977,31.0002883 29.6260053,31.2203784 29.0651504,31.2203784 L29.0651504,31.2203784 Z" id="Fill-20" fill="#004A87"></path>
                            </g>
                        </g>
                    </g>
                </g>
            </g>
        </g>
    </g>
</svg>