<?xml version="1.0" encoding="UTF-8"?>
<svg width="41px" height="37px" viewBox="0 0 41 37" version="1.1" xmlns="http://www.w3.org/2000/svg" xmlns:xlink="http://www.w3.org/1999/xlink">
    <!-- Generator: Sketch 54.1 (76490) - https://sketchapp.com -->
    <title>Icon / Mobile / HIW / Buildings</title>
    <desc>Created with Sketch.</desc>
    <defs>
        <polygon id="path-1" points="0.0786008547 0.27027619 3.77736154 0.27027619 3.77736154 3.63713524 0.0786008547 3.63713524"></polygon>
        <polygon id="path-3" points="0 36.647619 40.6797094 36.647619 40.6797094 0.27027619 0 0.27027619"></polygon>
    </defs>
    <g id="Desktop" stroke="none" stroke-width="1" fill="none" fill-rule="evenodd">
        <g id="A.1_HOME_R3.3" transform="translate(-1335.000000, -4727.000000)">
            <g id="DIV-03" transform="translate(0.000000, 4093.000000)">
                <g id="Group-3" transform="translate(949.000000, 155.000000)">
                    <g id="stat---4" transform="translate(386.000000, 461.000000)">
                        <g id="Icon-/-Mobile-/-HIW-/-Buildings" transform="translate(0.000000, 16.000000)">
                            <g id="Group-36" transform="translate(0.000000, 2.000000)">
                                <path d="M0,36.7297238 L3.70611966,36.7297238 L3.70611966,16.8698857 L0,16.8698857 L0,36.7297238 Z M0.700854701,36.0249619 L3.00526496,36.0249619 L3.00526496,17.5746476 L0.700854701,17.5746476 L0.700854701,36.0249619 Z" id="Fill-1" fill="#004A87"></path>
                                <path d="M30.9020855,36.7297238 L40.6797094,36.7297238 L40.6797094,24.2223143 L30.9020855,24.2223143 L30.9020855,36.7297238 Z M31.6029402,36.0253143 L39.9788547,36.0253143 L39.9788547,24.9274286 L31.6029402,24.9274286 L31.6029402,36.0253143 Z" id="Fill-2" fill="#004A87"></path>
                                <path d="M34.5899829,24.2223143 L36.991812,24.2223143 L36.991812,21.3306762 L34.5899829,21.3306762 L34.5899829,24.2223143 Z M33.8891282,24.9270762 L37.6926667,24.9270762 L37.6926667,20.6259143 L33.8891282,20.6259143 L33.8891282,24.9270762 Z" id="Fill-3" fill="#004A87"></path>
                                <path d="M17.6713504,36.7297238 L23.9418974,36.7297238 L23.9418974,24.3724286 L17.6713504,24.3724286 L17.6713504,36.7297238 Z M18.3722051,36.0249619 L23.2406923,36.0249619 L23.2406923,25.0771905 L18.3722051,25.0771905 L18.3722051,36.0249619 Z" id="Fill-4" fill="#004A87"></path>
                                <path d="M6.58873504,6.96762857 L14.7883846,6.96762857 L14.7883846,4.07140952 L6.58873504,4.07140952 L6.58873504,6.96762857 Z M5.88788034,7.67239048 L15.4892393,7.67239048 L15.4892393,3.36664762 L5.88788034,3.36664762 L5.88788034,7.67239048 Z" id="Fill-5" fill="#004A87"></path>
                                <polygon id="Fill-6" fill="#004A87" points="23.2406923 19.0261752 23.2406923 36.3774133 23.9418974 36.3774133 23.9418974 19.7309371 30.9020855 19.7309371 30.9020855 36.3774133 31.6029402 36.3774133 31.6029402 19.0261752"></polygon>
                                <path d="M25.3989744,19.0261048 L29.4446581,19.0261048 L29.4446581,12.1944952 L25.3989744,12.1944952 L25.3989744,19.0261048 Z M24.6981197,19.7308667 L30.1455128,19.7308667 L30.1455128,11.4897333 L24.6981197,11.4897333 L24.6981197,19.7308667 Z" id="Fill-7" fill="#004A87"></path>
                                <g id="Group-35" transform="translate(0.000000, 0.082105)">
                                    <path d="M27.4217812,12.1125314 C27.2283453,12.1125314 27.0713538,11.9550171 27.0713538,11.7601505 L27.0713538,5.5215981 C27.0713538,5.32673143 27.2283453,5.16921714 27.4217812,5.16921714 C27.6152171,5.16921714 27.7722085,5.32673143 27.7722085,5.5215981 L27.7722085,11.7601505 C27.7722085,11.9550171 27.6152171,12.1125314 27.4217812,12.1125314" id="Fill-8" fill="#004A87"></path>
                                    <g id="Group-12" transform="translate(8.760684, 0.000000)">
                                        <mask id="mask-2" fill="white">
                                            <use xlink:href="#path-1"></use>
                                        </mask>
                                        <g id="Clip-11"></g>
                                        <polygon id="Fill-10" fill="#004A87" mask="url(#mask-2)" points="3.77736154 3.63713524 3.07650684 3.63713524 3.07650684 0.974897143 0.779455556 0.974897143 0.779455556 3.63713524 0.0786008547 3.63713524 0.0786008547 0.270135238 3.77736154 0.270135238"></polygon>
                                    </g>
                                    <mask id="mask-4" fill="white">
                                        <use xlink:href="#path-3"></use>
                                    </mask>
                                    <g id="Clip-14"></g>
                                    <polygon id="Fill-13" fill="#004A87" mask="url(#mask-4)" points="6.63744444 11.9090667 7.33829915 11.9090667 7.33829915 10.4019333 6.63744444 10.4019333"></polygon>
                                    <polygon id="Fill-15" fill="#004A87" mask="url(#mask-4)" points="10.3379573 11.9090667 11.038812 11.9090667 11.038812 10.4019333 10.3379573 10.4019333"></polygon>
                                    <polygon id="Fill-16" fill="#004A87" mask="url(#mask-4)" points="14.0388205 11.9090667 14.7396752 11.9090667 14.7396752 10.4019333 14.0388205 10.4019333"></polygon>
                                    <polygon id="Fill-17" fill="#004A87" mask="url(#mask-4)" points="6.63744444 16.1534952 7.33829915 16.1534952 7.33829915 14.6463619 6.63744444 14.6463619"></polygon>
                                    <polygon id="Fill-18" fill="#004A87" mask="url(#mask-4)" points="10.3379573 16.1534952 11.038812 16.1534952 11.038812 14.6463619 10.3379573 14.6463619"></polygon>
                                    <polygon id="Fill-19" fill="#004A87" mask="url(#mask-4)" points="14.0388205 16.1534952 14.7396752 16.1534952 14.7396752 14.6463619 14.0388205 14.6463619"></polygon>
                                    <polygon id="Fill-20" fill="#004A87" mask="url(#mask-4)" points="6.63744444 20.3982762 7.33829915 20.3982762 7.33829915 18.8907905 6.63744444 18.8907905"></polygon>
                                    <polygon id="Fill-21" fill="#004A87" mask="url(#mask-4)" points="10.3379573 20.3982762 11.038812 20.3982762 11.038812 18.8907905 10.3379573 18.8907905"></polygon>
                                    <polygon id="Fill-22" fill="#004A87" mask="url(#mask-4)" points="14.0388205 20.3982762 14.7396752 20.3982762 14.7396752 18.8907905 14.0388205 18.8907905"></polygon>
                                    <polygon id="Fill-23" fill="#004A87" mask="url(#mask-4)" points="6.63744444 24.6427048 7.33829915 24.6427048 7.33829915 23.1355714 6.63744444 23.1355714"></polygon>
                                    <polygon id="Fill-24" fill="#004A87" mask="url(#mask-4)" points="10.3379573 24.6427048 11.038812 24.6427048 11.038812 23.1355714 10.3379573 23.1355714"></polygon>
                                    <polygon id="Fill-25" fill="#004A87" mask="url(#mask-4)" points="14.0388205 24.6427048 14.7396752 24.6427048 14.7396752 23.1355714 14.0388205 23.1355714"></polygon>
                                    <polygon id="Fill-26" fill="#004A87" mask="url(#mask-4)" points="6.63744444 28.8871333 7.33829915 28.8871333 7.33829915 27.38 6.63744444 27.38"></polygon>
                                    <polygon id="Fill-27" fill="#004A87" mask="url(#mask-4)" points="10.3379573 28.8871333 11.038812 28.8871333 11.038812 27.38 10.3379573 27.38"></polygon>
                                    <polygon id="Fill-28" fill="#004A87" mask="url(#mask-4)" points="14.0388205 28.8871333 14.7396752 28.8871333 14.7396752 27.38 14.0388205 27.38"></polygon>
                                    <polygon id="Fill-29" fill="#004A87" mask="url(#mask-4)" points="6.63744444 33.1315619 7.33829915 33.1315619 7.33829915 31.6244286 6.63744444 31.6244286"></polygon>
                                    <polygon id="Fill-30" fill="#004A87" mask="url(#mask-4)" points="10.3379573 33.1315619 11.038812 33.1315619 11.038812 31.6244286 10.3379573 31.6244286"></polygon>
                                    <polygon id="Fill-31" fill="#004A87" mask="url(#mask-4)" points="14.0388205 33.1315619 14.7396752 33.1315619 14.7396752 31.6244286 14.0388205 31.6244286"></polygon>
                                    <polygon id="Fill-32" fill="#004A87" mask="url(#mask-4)" points="18.3721 36.2953438 17.6712453 36.2953438 17.6712453 7.59039143 3.70601453 7.59039143 3.70601453 36.2953438 3.00515983 36.2953438 3.00515983 6.88562952 18.3721 6.88562952"></polygon>
                                    <polygon id="Fill-33" fill="#004A87" mask="url(#mask-4)" points="0.35042735 36.647619 40.3292821 36.647619 40.3292821 35.9428571 0.35042735 35.9428571"></polygon>
                                    <path d="M20.8064487,24.9950505 C20.6130128,24.9950505 20.4560214,24.8375362 20.4560214,24.6426695 L20.4560214,20.5878219 C20.4560214,20.3929552 20.6130128,20.235441 20.8064487,20.235441 C20.9998846,20.235441 21.1568761,20.3929552 21.1568761,20.5878219 L21.1568761,24.6426695 C21.1568761,24.8375362 20.9998846,24.9950505 20.8064487,24.9950505" id="Fill-34" fill="#004A87" mask="url(#mask-4)"></path>
                                </g>
                            </g>
                        </g>
                    </g>
                </g>
            </g>
        </g>
    </g>
</svg>