<?xml version="1.0" encoding="UTF-8"?>
<svg width="41px" height="35px" viewBox="0 0 41 35" version="1.1" xmlns="http://www.w3.org/2000/svg" xmlns:xlink="http://www.w3.org/1999/xlink">
    <!-- Generator: Sketch 54.1 (76490) - https://sketchapp.com -->
    <title>Icon / Mobile / HIW / Handshake</title>
    <desc>Created with Sketch.</desc>
    <defs>
        <polygon id="path-1" points="0.000122817661 0.049875 40.8291667 0.049875 40.8291667 34.6875 0.000122817661 34.6875"></polygon>
    </defs>
    <g id="Desktop" stroke="none" stroke-width="1" fill="none" fill-rule="evenodd">
        <g id="A.1_HOME_R3.3" transform="translate(-1339.000000, -4531.000000)">
            <g id="DIV-03" transform="translate(0.000000, 4093.000000)">
                <g id="Group-3" transform="translate(949.000000, 155.000000)">
                    <g id="stat---2" transform="translate(390.000000, 280.000000)">
                        <g id="Icon-/-Mobile-/-HIW-/-Handshake">
                            <g id="Group-12" transform="translate(0.000000, 3.000000)">
                                <polygon id="Fill-1" fill="#009EE3" points="40.1419818 11.913875 36.6799667 15.718875 25.8146561 4.830125 29.3481106 0.9185625"></polygon>
                                <g id="Group-11" transform="translate(0.000000, 0.262812)">
                                    <g id="Group-4">
                                        <mask id="mask-2" fill="white">
                                            <use xlink:href="#path-1"></use>
                                        </mask>
                                        <g id="Clip-3"></g>
                                        <path d="M21.9233212,11.54425 C22.0522227,11.54425 22.1733591,11.6014375 22.2553591,11.7014375 C22.3286621,11.7901875 22.3625182,11.9026875 22.3519576,12.0183125 C22.3407758,12.133 22.2861091,12.2370625 22.1975864,12.3105 L21.5279197,12.867375 L21.8270333,13.1105 C23.6906697,14.623 29.8794955,19.6633125 31.2818818,21.02925 L31.4906091,21.233 L31.7086545,21.038625 C31.9729803,20.8026875 33.3151091,19.59425 33.7884727,18.952375 C34.2382303,18.3414375 34.4295636,17.30175 34.5826924,16.466125 C34.6740106,15.966125 34.7529045,15.5355 34.8783894,15.24175 C34.92995,15.1201875 35.0225106,15.0558125 35.0914652,15.0233125 L35.5027076,14.8283125 L26.3177758,5.8989375 L26.0972455,6.19175 L26.0798515,6.217375 C26.0136924,6.293625 25.3179348,7.0814375 24.5678212,7.1795625 L24.3848742,7.2039375 C23.523253,7.318625 21.5198439,7.584875 20.3240106,7.5964375 L20.2926394,7.59675 L20.2615788,7.603625 C19.7304424,7.7164375 18.3140788,8.8364375 16.6523364,10.45675 C15.0030182,12.064875 13.7907227,13.491125 13.6136773,13.8901875 C13.2247985,14.7664375 13.6077758,15.646125 14.1283515,16.0926875 C14.3985788,16.3245625 14.71695,16.442375 15.074147,16.442375 C15.8149424,16.442375 16.4979652,15.922375 16.6892985,15.763 L21.6499879,11.643 C21.72795,11.5783125 21.8226848,11.54425 21.9233212,11.54425 L21.9233212,11.54425 Z M9.0744803,20.708 C8.70051061,20.708 8.34921515,20.85425 8.0852,21.1201875 L7.04870758,22.16175 C6.78438182,22.4283125 6.63901818,22.78175 6.63901818,23.1576875 C6.63870758,23.533625 6.78407121,23.887375 7.04839697,24.153625 C7.31334394,24.419875 7.66526061,24.56675 8.0389197,24.56675 C8.41226818,24.56675 8.76325303,24.4205 9.02757879,24.154875 L10.0640712,23.113 C10.3287076,22.8476875 10.4746924,22.49425 10.475003,22.1176875 C10.475003,21.7414375 10.3296394,21.3876875 10.0653136,21.121125 C9.80129848,20.854875 9.44907121,20.708 9.0744803,20.708 L9.0744803,20.708 Z M11.9628061,23.778 C11.5885258,23.778 11.2372303,23.92425 10.9732152,24.1901875 L9.93734394,25.2320625 C9.67270758,25.498 9.52672273,25.852375 9.52703333,26.2289375 C9.52703333,26.6045625 9.67270758,26.9576875 9.93672273,27.2233125 C10.2016697,27.489875 10.5532758,27.63675 10.9269348,27.63675 C11.3005939,27.63675 11.6518894,27.4905 11.9155939,27.224875 L12.9520864,26.1833125 C13.2170333,25.9170625 13.3627076,25.5633125 13.3627076,25.187375 C13.3630182,24.8114375 13.2176545,24.4576875 12.9530182,24.19175 C12.689003,23.9251875 12.3370864,23.778 11.9628061,23.778 L11.9628061,23.778 Z M14.7004879,26.533 C14.3262076,26.533 13.9749121,26.67925 13.7112076,26.9445625 L12.6753364,27.986125 C12.4110106,28.2520625 12.2647152,28.6058125 12.2644045,28.9820625 C12.2644045,29.358625 12.4100788,29.712375 12.6747152,29.978 C12.9393515,30.2445625 13.2909576,30.3914375 13.6646167,30.3914375 C14.0379652,30.3914375 14.3892606,30.2451875 14.653897,29.9795625 L15.6900788,28.9376875 C15.9547152,28.671125 16.1007,28.3176875 16.1007,27.9420625 C16.1010106,27.5664375 15.9553364,27.212375 15.6913212,26.9458125 C15.4266848,26.6795625 15.0750788,26.533 14.7004879,26.533 L14.7004879,26.533 Z M17.91495,29.6026875 C17.5412909,29.6026875 17.1899955,29.74925 16.9259803,30.0145625 L15.8897985,31.056125 C15.6257833,31.3220625 15.4797985,31.6758125 15.4794879,32.05175 C15.4794879,32.4289375 15.6254727,32.7826875 15.8901091,33.0483125 C16.1541242,33.3145625 16.5054197,33.46175 16.8793894,33.46175 C17.2533591,33.46175 17.6046545,33.3151875 17.8686697,33.0489375 L18.9045409,32.0076875 C19.1694879,31.742375 19.3154727,31.388625 19.3154727,31.0120625 C19.3157833,30.63675 19.1704197,30.283 18.9057833,30.016125 C18.6417682,29.749875 18.2898515,29.6026875 17.91495,29.6026875 L17.91495,29.6026875 Z M22.9529803,34.6876875 C22.115897,34.6876875 21.2943439,34.4270625 20.6989121,33.972375 C20.6498364,33.9376875 20.4852152,33.8405 20.3643894,33.7701875 C20.0702455,33.5976875 19.8515788,33.467375 19.7217455,33.3633125 C19.6624197,33.316125 19.618003,33.253 19.5894273,33.1758125 L19.4195258,32.7133125 L18.4765258,33.661125 C18.0500636,34.0905 17.482897,34.3270625 16.8793894,34.3270625 C16.2752606,34.3270625 15.7080939,34.0901875 15.2813212,33.6601875 C14.8539273,33.2308125 14.6187985,32.6595625 14.6191091,32.05175 C14.6191091,31.8883125 14.6392985,31.71675 14.6787455,31.5426875 L14.7955333,31.023 L14.2861394,31.168625 C14.08145,31.2270625 13.8724121,31.25675 13.6646167,31.25675 C13.0611091,31.25675 12.4936318,31.0201875 12.0665485,30.5901875 C11.6391545,30.1605 11.4040258,29.5895625 11.4043364,28.9820625 C11.4043364,28.9408125 11.407753,28.9005 11.4102379,28.859875 L11.4341545,28.499875 L11.0782,28.4945625 C11.008003,28.4995625 10.9679348,28.5026875 10.9269348,28.5026875 C10.3231167,28.5026875 9.75595,28.2658125 9.32855606,27.8355 C8.90209394,27.40675 8.66696515,26.8364375 8.66665455,26.22925 C8.66665455,26.07925 8.68125303,25.9283125 8.71013939,25.781125 L8.79555606,25.3451875 L8.35822273,25.40675 C8.23553333,25.42425 8.13365455,25.4320625 8.0389197,25.4320625 C7.43479091,25.4320625 6.86700303,25.1955 6.44054091,24.7658125 C6.01314697,24.33675 5.77832879,23.7651875 5.77863939,23.1576875 C5.77863939,22.5505 6.01376818,21.9795625 6.44054091,21.54925 L7.47672273,20.508 C7.90349545,20.0789375 8.47066212,19.8426875 9.0744803,19.8426875 C9.6789197,19.8426875 10.2473288,20.0795625 10.6741015,20.509875 C11.1005636,20.93925 11.3353818,21.5108125 11.3353818,22.118 C11.3350712,22.268625 11.3204727,22.418625 11.291897,22.5633125 L11.2058591,22.9995625 L11.6438136,22.9376875 C11.7655712,22.9205 11.8671394,22.9126875 11.9628061,22.9126875 C12.5675561,22.9126875 13.1353439,23.1495625 13.5618061,23.579875 C13.9888894,24.009875 14.223397,24.5808125 14.2227758,25.1876875 C14.2227758,25.2289375 14.2196697,25.2689375 14.2171848,25.3095625 L14.1929576,25.66925 L14.5492227,25.6751875 C14.6187985,25.6701875 14.6594879,25.667375 14.7004879,25.667375 C15.3049273,25.667375 15.8730258,25.90425 16.3001091,26.3345625 C16.7265712,26.76425 16.9610788,27.3351875 16.9607682,27.942375 C16.9604576,28.107375 16.9408894,28.278625 16.901753,28.451125 L16.7837227,28.9714375 L17.2940485,28.8255 C17.4987379,28.76675 17.7077758,28.737375 17.91495,28.737375 C18.5193894,28.737375 19.0877985,28.97425 19.5145712,29.4045625 C19.9410333,29.8339375 20.1758515,30.404875 20.1758515,31.0126875 C20.1755409,31.4070625 20.0721091,31.79675 19.8764273,32.1389375 L19.6627303,32.5139375 L20.0823591,32.6055 C20.1500712,32.6201875 20.209397,32.6476875 20.2584727,32.68675 C20.3336394,32.7476875 20.5131697,32.8555 20.7973742,33.0220625 C21.008897,33.1458125 21.142147,33.2245625 21.2194879,33.2833125 C21.6574424,33.6176875 22.3109576,33.817375 22.9672682,33.817375 C23.4946773,33.817375 23.9699045,33.68925 24.3062909,33.4564375 C24.7411394,33.1551875 24.9091773,32.7014375 24.804503,32.108 L24.7846242,31.99425 L22.5044652,30.072375 C22.32245,29.91925 22.2985333,29.6458125 22.4507303,29.4626875 C22.5327303,29.36425 22.6529348,29.308 22.7809045,29.308 C22.8520333,29.308 22.9576394,29.3255 23.0564121,29.4089375 L25.3225939,31.31925 L25.3800561,31.3383125 C25.8357152,31.4901875 26.174897,31.5608125 26.4469879,31.5608125 C26.8818364,31.5608125 27.1365333,31.3755 27.3107833,31.2139375 C27.7409727,30.8139375 28.0686621,30.0845625 27.828253,29.5205 L27.797503,29.4495625 L24.90545,27.0739375 C24.7215712,26.923625 24.6942379,26.6501875 24.84395,26.4651875 C24.92595,26.3639375 25.0477076,26.3058125 25.1778515,26.3058125 C25.2775561,26.3058125 25.3713591,26.339875 25.4493212,26.403625 L28.3261545,28.7664375 L28.4041167,28.7814375 C28.5699803,28.813625 28.7290106,28.829875 28.8759273,28.829875 C29.5381394,28.829875 29.8816697,28.5039375 30.0869803,28.3089375 L30.1435106,28.2564375 C30.5550636,27.8726875 30.7895712,27.1389375 30.4392076,26.4801875 L30.408147,26.422375 L26.687397,23.4508125 C26.5973212,23.378625 26.5404803,23.276125 26.5274348,23.161125 C26.5143894,23.0464375 26.5463818,22.9333125 26.6178212,22.8426875 C26.7001318,22.738625 26.8225106,22.6789375 26.9548288,22.6789375 C27.0529803,22.6789375 27.1452303,22.7114375 27.2228818,22.773 L30.6827227,25.5364375 L30.7616167,25.561125 L30.770003,25.5626875 L30.9017,25.61175 L31.0374348,25.51425 C31.1591924,25.42675 31.3362379,25.268 31.4241394,25.1464375 L31.4427758,25.1176875 C31.6912606,24.6826875 31.7937606,24.3595625 31.774503,24.069875 C31.7260485,23.3464375 31.3309576,22.3945625 30.8352303,21.8064375 C30.2376242,21.0976875 24.4028894,16.30925 21.0495864,13.5914375 L20.8501773,13.4295625 L17.2372076,16.4308125 C16.5566697,16.9958125 15.7894727,17.3070625 15.077253,17.3070625 C14.5150561,17.3070625 13.9941697,17.114875 13.5698818,16.751125 C12.8135561,16.102375 12.2591242,14.8195625 12.8287758,13.53675 C13.0552076,13.026125 14.0597076,11.842375 15.514897,10.3708125 L15.8596697,10.022375 L15.4015258,9.8514375 C14.6150712,9.5583125 13.2589652,9.3339375 12.3318061,9.24925 L12.1597303,9.233625 L6.28927576,16.907375 L6.92322273,18.8295625 C6.95956364,18.9395625 6.95148788,19.05675 6.89992727,19.1601875 C6.84836667,19.263625 6.75984394,19.3405 6.65082121,19.37675 C6.60640455,19.39175 6.56105606,19.39925 6.51539697,19.39925 C6.32965455,19.39925 6.16565455,19.279875 6.10663939,19.102375 L5.65595,17.7355 L4.51229848,19.2301875 C4.43060909,19.337375 4.30605606,19.3989375 4.17125303,19.3989375 C4.08894242,19.3989375 4.00911667,19.3755 3.94016212,19.3308125 L0.197980303,16.921125 C-0.00173939394,16.7926875 -0.0598227273,16.5245625 0.0678363636,16.323625 C0.147040909,16.1989375 0.282775758,16.1239375 0.430624242,16.1239375 C0.512313636,16.1239375 0.592139394,16.1476875 0.662025758,16.192375 L4.07092727,18.3876875 L12.7532985,7.0395625 L9.08659394,3.9883125 C8.99776061,3.914875 8.94278333,3.8108125 8.93222273,3.6958125 C8.92104091,3.5808125 8.95551818,3.4683125 9.02851061,3.37925 C9.11051061,3.279875 9.23195758,3.222375 9.36085909,3.222375 C9.46180606,3.222375 9.55654091,3.25675 9.63481364,3.32175 L13.6211318,6.6389375 C13.8006621,6.7883125 13.8295485,7.0505 13.6879121,7.2364375 L12.7840485,8.4176875 L13.3189121,8.493 C14.6442682,8.6795625 15.692253,8.9705 16.2699803,9.3120625 L16.4721848,9.4320625 L16.6436394,9.2708125 C19.3369045,6.7389375 20.0615485,6.733 20.2991621,6.731125 C21.4437455,6.7226875 23.4980939,6.448625 24.2721242,6.3455 L24.4569348,6.321125 C24.8277985,6.2726875 25.3263212,5.769875 25.4393818,5.6383125 C25.4555333,5.6195625 25.4744803,5.603625 25.4931167,5.5883125 L25.7670712,5.3633125 L25.0374576,4.6533125 C24.9539045,4.572375 24.9073136,4.4639375 24.9063818,4.348 C24.9051394,4.2320625 24.9501773,4.11925 25.0303136,4.0376875 L28.8249879,0.1783125 C28.9063667,0.0951875 29.0153894,0.049875 29.1312455,0.049875 C29.2449273,0.049875 29.352397,0.0939375 29.4334652,0.1745625 C29.6021242,0.342375 29.6036773,0.617375 29.4368818,0.7870625 L25.9478439,4.3355 L37.0057303,15.0858125 L40.0614727,11.1883125 C40.1434727,11.083625 40.2667833,11.0239375 40.3994121,11.0239375 C40.4969424,11.0239375 40.5888818,11.056125 40.6656015,11.11675 C40.7556773,11.1883125 40.8125182,11.2908125 40.8261848,11.4058125 C40.8395409,11.5208125 40.8078591,11.6339375 40.7364197,11.7245625 L37.3862227,15.997375 C37.3110561,16.0933125 37.1989273,16.153 37.0774803,16.161125 L37.0725106,16.161125 C36.9342909,16.161125 36.8296167,16.1183125 36.7494803,16.0405 L35.8465485,15.162375 L35.66795,15.5858125 C35.5868818,15.7770625 35.5204121,16.1208125 35.4287833,16.6226875 C35.2591924,17.547375 35.0479803,18.696125 34.4792606,19.468 C33.9201697,20.226125 32.4516242,21.534875 32.1633818,21.78925 L31.9798136,21.9514375 L32.0900788,22.1701875 C32.3975788,22.778625 32.5948136,23.449875 32.6327076,24.0114375 C32.6737076,24.626125 32.3944727,25.19175 32.1801545,25.563625 C32.0975333,25.70675 31.8375561,26.008 31.5176318,26.2295625 L31.3359273,26.3555 L31.392147,26.5705 C31.6129879,27.4145625 31.3579803,28.3045625 30.725897,28.893 L30.677753,28.9389375 C30.4180864,29.184875 29.9357152,29.64175 29.0660182,29.697375 L28.7830561,29.7151875 L28.7721848,30.0008125 C28.7470258,30.66175 28.41095,31.369875 27.8944121,31.849875 C27.4763364,32.238 27.0039045,32.42675 26.4504045,32.42675 C26.3208818,32.42675 26.1829727,32.4164375 26.0404045,32.396125 L25.7164424,32.349875 L25.6832076,32.6770625 C25.6207758,33.29425 25.3129652,33.8101875 24.7933212,34.169875 C24.31095,34.503625 23.6577455,34.6876875 22.9545333,34.6876875 L22.9529803,34.6876875 Z" id="Fill-2" fill="#004A87" mask="url(#mask-2)"></path>
                                    </g>
                                    <path d="M21.4285879,29.0079375 C21.3282621,29.0079375 21.2298,28.9723125 21.1524591,28.907 L21.087853,28.853875 L21.0580348,28.8385625 C20.9869061,28.80325 20.9272697,28.7479375 20.8847167,28.6795 C20.7728985,28.497625 20.807997,28.2560625 20.9673379,28.1173125 C21.0524439,28.0429375 21.1335121,28.00825 21.2217242,28.00825 C21.3552848,28.00825 21.5223909,28.0898125 21.7050273,28.24325 C21.7932394,28.317625 21.8472848,28.422 21.8572242,28.537 C21.8674742,28.6523125 21.8323758,28.7645 21.7584515,28.85325 C21.6767621,28.951375 21.5565576,29.0079375 21.4285879,29.0079375" id="Fill-5" fill="#004A87"></path>
                                    <path d="M23.9170705,26.1368438 C23.8714114,26.1368438 23.8266841,26.1299687 23.7841311,26.1162188 L23.7841311,25.9868438 L23.7639417,25.9868438 L23.7639417,25.9705937 L23.6126765,25.9705937 L23.6117447,25.9693438 L23.5809947,25.9690313 L23.5667068,25.9546563 L23.5471386,25.9584062 L23.5431008,25.9546563 C23.3337523,25.7693438 23.3635705,25.5690313 23.3999114,25.4662187 C23.4604795,25.2946562 23.6235477,25.1793438 23.8049417,25.1793438 C23.9242144,25.1793438 23.9906841,25.2137188 24.0860402,25.2855938 L24.1947523,25.3734063 C24.2814114,25.4474688 24.3342144,25.5487187 24.3453962,25.6609063 C24.3568886,25.7759063 24.3236538,25.8884062 24.2506614,25.9777812 C24.168972,26.0790312 24.0472144,26.1368438 23.9170705,26.1368438" id="Fill-7" fill="#004A87"></path>
                                    <polygon id="Fill-9" fill="#009EE3" points="8.93216061 3.69575 12.7532364 7.0395 4.07117576 18.3879375 0.0677742424 16.3235625"></polygon>
                                </g>
                            </g>
                        </g>
                    </g>
                </g>
            </g>
        </g>
    </g>
</svg>